<mxfile host="app.diagrams.net" agent="Mozilla/5.0 (Windows NT 10.0; Win64; x64) AppleWebKit/537.36 (KHTML, like Gecko) Chrome/130.0.0.0 Safari/537.36" version="24.8.6">
  <diagram name="페이지-1" id="HObtC5oPkVgvrynjsulA">
    <mxGraphModel dx="1434" dy="780" grid="1" gridSize="10" guides="1" tooltips="1" connect="1" arrows="1" fold="1" page="1" pageScale="1" pageWidth="827" pageHeight="1169" math="0" shadow="0">
      <root>
        <mxCell id="0" />
        <mxCell id="1" parent="0" />
        <mxCell id="wxyRs1XQf3C56py_Pnzs-1" value="Server" style="swimlane;whiteSpace=wrap;html=1;" parent="1" vertex="1">
          <mxGeometry x="39" y="50" width="230" height="350" as="geometry">
            <mxRectangle x="39" y="50" width="80" height="30" as="alternateBounds" />
          </mxGeometry>
        </mxCell>
        <mxCell id="FDJodpJQQAL7HoEDpI34-8" style="edgeStyle=orthogonalEdgeStyle;rounded=0;orthogonalLoop=1;jettySize=auto;html=1;entryX=0.5;entryY=0;entryDx=0;entryDy=0;" edge="1" parent="wxyRs1XQf3C56py_Pnzs-1" source="wxyRs1XQf3C56py_Pnzs-18" target="FDJodpJQQAL7HoEDpI34-3">
          <mxGeometry relative="1" as="geometry" />
        </mxCell>
        <mxCell id="wxyRs1XQf3C56py_Pnzs-18" value="Select random keywords" style="rounded=1;whiteSpace=wrap;html=1;" parent="wxyRs1XQf3C56py_Pnzs-1" vertex="1">
          <mxGeometry x="20.5" y="170" width="189" height="40" as="geometry" />
        </mxCell>
        <mxCell id="FDJodpJQQAL7HoEDpI34-7" style="edgeStyle=orthogonalEdgeStyle;rounded=0;orthogonalLoop=1;jettySize=auto;html=1;" edge="1" parent="wxyRs1XQf3C56py_Pnzs-1" source="wxyRs1XQf3C56py_Pnzs-7" target="wxyRs1XQf3C56py_Pnzs-18">
          <mxGeometry relative="1" as="geometry" />
        </mxCell>
        <mxCell id="wxyRs1XQf3C56py_Pnzs-7" value="Generate Personalized Recommendations" style="rounded=1;whiteSpace=wrap;html=1;" parent="wxyRs1XQf3C56py_Pnzs-1" vertex="1">
          <mxGeometry x="20.5" y="100" width="189" height="40" as="geometry" />
        </mxCell>
        <mxCell id="FDJodpJQQAL7HoEDpI34-3" value="Fetch restaurants &lt;br&gt;based on keywords" style="rounded=1;whiteSpace=wrap;html=1;" vertex="1" parent="wxyRs1XQf3C56py_Pnzs-1">
          <mxGeometry x="20.5" y="240" width="189" height="40" as="geometry" />
        </mxCell>
        <mxCell id="wxyRs1XQf3C56py_Pnzs-2" value="Client" style="swimlane;whiteSpace=wrap;html=1;" parent="1" vertex="1">
          <mxGeometry x="299" y="50" width="230" height="350" as="geometry" />
        </mxCell>
        <mxCell id="FDJodpJQQAL7HoEDpI34-1" value="Request restaurant list" style="rounded=1;whiteSpace=wrap;html=1;" vertex="1" parent="wxyRs1XQf3C56py_Pnzs-2">
          <mxGeometry x="20.5" y="100" width="189" height="40" as="geometry" />
        </mxCell>
        <mxCell id="FDJodpJQQAL7HoEDpI34-12" value="" style="edgeStyle=orthogonalEdgeStyle;rounded=0;orthogonalLoop=1;jettySize=auto;html=1;" edge="1" parent="wxyRs1XQf3C56py_Pnzs-2" source="FDJodpJQQAL7HoEDpI34-2" target="FDJodpJQQAL7HoEDpI34-1">
          <mxGeometry relative="1" as="geometry" />
        </mxCell>
        <mxCell id="FDJodpJQQAL7HoEDpI34-2" value="" style="ellipse;whiteSpace=wrap;html=1;aspect=fixed;fillColor=#000000;" vertex="1" parent="wxyRs1XQf3C56py_Pnzs-2">
          <mxGeometry x="100" y="40" width="30" height="30" as="geometry" />
        </mxCell>
        <mxCell id="FDJodpJQQAL7HoEDpI34-11" value="" style="edgeStyle=orthogonalEdgeStyle;rounded=0;orthogonalLoop=1;jettySize=auto;html=1;" edge="1" parent="wxyRs1XQf3C56py_Pnzs-2" source="FDJodpJQQAL7HoEDpI34-4" target="FDJodpJQQAL7HoEDpI34-10">
          <mxGeometry relative="1" as="geometry" />
        </mxCell>
        <mxCell id="FDJodpJQQAL7HoEDpI34-4" value="Show restaurant list" style="rounded=1;whiteSpace=wrap;html=1;" vertex="1" parent="wxyRs1XQf3C56py_Pnzs-2">
          <mxGeometry x="20.5" y="240" width="189" height="40" as="geometry" />
        </mxCell>
        <mxCell id="FDJodpJQQAL7HoEDpI34-10" value="" style="ellipse;html=1;shape=endState;fillColor=strokeColor;" vertex="1" parent="wxyRs1XQf3C56py_Pnzs-2">
          <mxGeometry x="100" y="310" width="30" height="30" as="geometry" />
        </mxCell>
        <mxCell id="FDJodpJQQAL7HoEDpI34-5" style="edgeStyle=orthogonalEdgeStyle;rounded=0;orthogonalLoop=1;jettySize=auto;html=1;entryX=1;entryY=0.5;entryDx=0;entryDy=0;" edge="1" parent="1" source="FDJodpJQQAL7HoEDpI34-1" target="wxyRs1XQf3C56py_Pnzs-7">
          <mxGeometry relative="1" as="geometry" />
        </mxCell>
        <mxCell id="FDJodpJQQAL7HoEDpI34-9" style="edgeStyle=orthogonalEdgeStyle;rounded=0;orthogonalLoop=1;jettySize=auto;html=1;entryX=0;entryY=0.5;entryDx=0;entryDy=0;" edge="1" parent="1" source="FDJodpJQQAL7HoEDpI34-3" target="FDJodpJQQAL7HoEDpI34-4">
          <mxGeometry relative="1" as="geometry" />
        </mxCell>
      </root>
    </mxGraphModel>
  </diagram>
</mxfile>
